HIERARCHY
ROOT reference
{
  OFFSET 0 0 0
  CHANNELS 6 Xposition Yposition Zposition Zrotation Xrotation Yrotation
  JOINT Hips
  {
    OFFSET -3.04907 43.8971 -9.79659
    CHANNELS 6 Xposition Yposition Zposition Zrotation Xrotation Yrotation
    JOINT Spine
    {
      OFFSET 0 7.59534 0
      CHANNELS 6 Xposition Yposition Zposition Zrotation Xrotation Yrotation
      JOINT Spine1
      {
        OFFSET 0 23.5015 0
        CHANNELS 6 Xposition Yposition Zposition Zrotation Xrotation Yrotation
        JOINT Neck
        {
          OFFSET 0 23.405 2.12773
          CHANNELS 6 Xposition Yposition Zposition Zrotation Xrotation Yrotation
          JOINT Head
          {
            OFFSET 0 12.9677 -1.85252
            CHANNELS 6 Xposition Yposition Zposition Zrotation Xrotation Yrotation
            End Site
            {
              OFFSET 0 23.1565 0
            }
          }
        }
        JOINT LeftShoulder
        {
          OFFSET 3.62206 22.4732 -0.132728
          CHANNELS 6 Xposition Yposition Zposition Zrotation Xrotation Yrotation
          JOINT LeftArm
          {
            OFFSET 8.17784 0 0
            CHANNELS 6 Xposition Yposition Zposition Zrotation Xrotation Yrotation
            JOINT LeftForeArm
            {
              OFFSET 30.104 0 0
              CHANNELS 6 Xposition Yposition Zposition Zrotation Xrotation Yrotation
              JOINT LeftHand
              {
                OFFSET 24.4664 0 0
                CHANNELS 6 Xposition Yposition Zposition Zrotation Xrotation Yrotation
                End Site
                {
                  OFFSET 13.8939 0 0
                }
              }
            }
          }
        }
        JOINT RightShoulder
        {
          OFFSET -3.6336 22.4732 -0.132728
          CHANNELS 6 Xposition Yposition Zposition Zrotation Xrotation Yrotation
          JOINT RightArm
          {
            OFFSET -8.17784 0 0
            CHANNELS 6 Xposition Yposition Zposition Zrotation Xrotation Yrotation
            JOINT RightForeArm
            {
              OFFSET -30.104 0 0
              CHANNELS 6 Xposition Yposition Zposition Zrotation Xrotation Yrotation
              JOINT RightHand
              {
                OFFSET -24.4664 0 0
                CHANNELS 6 Xposition Yposition Zposition Zrotation Xrotation Yrotation
                End Site
                {
                  OFFSET -13.8939 0 0
                }
              }
            }
          }
        }
      }
    }
    JOINT LeftUpLeg
    {
      OFFSET 9.26261 0 0
      CHANNELS 6 Xposition Yposition Zposition Zrotation Xrotation Yrotation
      JOINT LeftLeg
      {
        OFFSET 0 -35.4897 0
        CHANNELS 6 Xposition Yposition Zposition Zrotation Xrotation Yrotation
        JOINT LeftFoot
        {
          OFFSET 0 -38.2023 0
          CHANNELS 6 Xposition Yposition Zposition Zrotation Xrotation Yrotation
          JOINT LeftToeBase
          {
            OFFSET 0 -6.0207 13.8939
            CHANNELS 6 Xposition Yposition Zposition Zrotation Xrotation Yrotation
            End Site
            {
              OFFSET 0 0 3.70504
            }
          }
        }
      }
    }
    JOINT RightUpLeg
    {
      OFFSET -9.26261 0 0
      CHANNELS 6 Xposition Yposition Zposition Zrotation Xrotation Yrotation
      JOINT RightLeg
      {
        OFFSET 0 -35.4897 0
        CHANNELS 6 Xposition Yposition Zposition Zrotation Xrotation Yrotation
        JOINT RightFoot
        {
          OFFSET 0 -38.2023 0
          CHANNELS 6 Xposition Yposition Zposition Zrotation Xrotation Yrotation
          JOINT RightToeBase
          {
            OFFSET 0 -6.0207 13.8939
            CHANNELS 6 Xposition Yposition Zposition Zrotation Xrotation Yrotation
            End Site
            {
              OFFSET 0 0 3.70504
            }
          }
        }
      }
    }
  }
}
MOTION
Frames:	4
Frame Time:	0.004
0 0 0 0 0 -0 -17.9263 32.5309 -157.2 -4.01017 -25.2776 -3.22268 3.55271e-015 7.59534 0 -21.3518 58.3603 14.0761 0 23.5015 0 5.63276 12.4659 1.44037 3.55271e-015 23.405 2.12773 8.37767 13.0112 -11.8194 -7.10543e-015 12.9677 -1.85252 9.4163 -30.266 -8.80885 3.62206 22.4732 -0.132728 -1.20793 4.95452 -8.60934 8.17784 7.10543e-015 0 -15.3206 22.1639 -26.6498 30.104 1.42109e-014 0 16.6339 -19.0544 -26.2643 24.4664 -1.42109e-014 0 4.47112 -15.67 -9.26902 -3.6336 22.4732 -0.132728 0.1697 8.81468 44.775 -8.17784 0 0 10.9275 15.598 13.5706 -30.104 1.42109e-014 0 -20.2759 -8.80744 25.1737 -24.4664 2.84217e-014 0 -2.68212 -4.51779 11.0014 9.26261 0 -1.42109e-014 36.1968 -42.0572 10.1764 0 -35.4897 7.10543e-015 -174.881 32.4142 135.711 -3.55271e-015 -38.2023 0 25.2331 -19.2392 18.7269 0 -6.0207 13.8939 3.97569e-016 -9.54166e-015 5.96354e-016 -9.26261 0 1.42109e-014 -13.7923 -78.7439 -14.2744 0 -35.4897 1.42109e-014 -177.406 62.912 166.591 0 -38.2023 -1.42109e-014 6.6856 -8.99634 30.6816 -3.55271e-015 -6.0207 13.8939 3.97569e-016 0 -1.59028e-015 
0 0 0 0 0 -0 -18.0272 32.5232 -157.074 -3.82263 -25.1352 -2.98089 0 7.59534 0 -21.3693 58.3478 14.0992 0 23.5015 0 5.6529 12.4987 1.4526 3.55271e-015 23.405 2.12773 8.39058 13.0918 -11.9292 0 12.9677 -1.85252 9.66979 -30.5208 -8.79548 3.62206 22.4732 -0.132728 -1.17669 4.91822 -8.87462 8.17784 0 -2.84217e-014 -15.3273 21.8369 -26.6744 30.104 -2.84217e-014 -2.84217e-014 16.4671 -18.878 -26.396 24.4664 0 0 4.47813 -15.5117 -9.31731 -3.6336 22.4732 -0.132728 0.183312 8.90012 44.7177 -8.17784 0 0 10.9395 15.5029 13.536 -30.104 1.42109e-014 0 -20.416 -8.95607 25.2356 -24.4664 -1.42109e-014 0 -2.71185 -4.62587 10.9677 9.26261 1.42109e-014 1.42109e-014 36.282 -42.1059 10.1016 0 -35.4897 0 -175.489 32.3655 134.954 3.55271e-015 -38.2023 0 25.0342 -19.4578 18.9702 0 -6.0207 13.8939 -1.98785e-016 0 1.98785e-016 -9.26261 1.42109e-014 -2.84217e-014 -13.9205 -78.8674 -14.4185 0 -35.4897 0 -177.381 62.6745 166.527 -1.42109e-014 -38.2023 0 6.59748 -9.34677 30.3584 0 -6.0207 13.8939 -9.93923e-017 -7.95139e-016 1.59028e-015 
0 0 0 0 0 -0 -18.1527 32.5506 -156.931 -3.66899 -25.1325 -2.8218 3.55271e-015 7.59534 1.42109e-014 -21.6037 58.4813 14.3072 -3.55271e-015 23.5015 0 5.61673 12.5572 1.49455 -3.55271e-015 23.405 2.12773 8.36553 12.9672 -11.9916 0 12.9677 -1.85252 9.9608 -30.5778 -8.7484 3.62206 22.4732 -0.132728 -1.03234 4.9393 -8.94916 8.17784 7.10543e-015 0 -15.1005 21.9488 -26.921 30.104 0 0 16.6306 -19.0383 -26.3488 24.4664 0 1.42109e-014 4.25665 -15.6281 -9.3555 -3.6336 22.4732 -0.132728 0.214107 8.91575 44.7009 -8.17784 0 0 10.9418 15.4157 13.5377 -30.104 0 0 -20.5012 -9.0133 25.2838 -24.4664 0 7.10543e-015 -2.91723 -4.67344 10.9282 9.26261 1.42109e-014 2.84217e-014 36.3763 -41.9418 10.0662 -7.10543e-015 -35.4897 3.55271e-015 -175.605 32.5011 134.894 0 -38.2023 0 24.7946 -19.431 18.8049 -1.77636e-015 -6.0207 13.8939 -3.97569e-016 0 -0 -9.26261 1.42109e-014 0 -13.3576 -78.8088 -13.7335 0 -35.4897 -1.42109e-014 -177.738 62.4823 166.927 0 -38.2023 1.42109e-014 6.44301 -9.77288 29.9254 0 -6.0207 13.8939 -9.93923e-017 -3.97569e-016 -1.59028e-015 
0 0 0 0 0 -0 -18.2506 32.5575 -156.804 -3.45861 -24.996 -2.55735 0 7.59534 1.42109e-014 -21.5137 58.4746 14.1821 0 23.5015 0 5.56263 12.7059 1.42141 0 23.405 2.12773 8.24428 12.776 -11.9906 0 12.9677 -1.85252 10.2332 -30.587 -8.64844 3.62206 22.4732 -0.132728 -0.955484 4.81075 -8.97457 8.17784 -7.10543e-015 0 -14.9316 21.9488 -27.0819 30.104 -1.42109e-014 -1.42109e-014 16.5903 -18.9544 -26.4352 24.4664 0 0 4.25319 -15.5397 -9.37605 -3.6336 22.4732 -0.132728 0.191069 8.91754 44.716 -8.17784 0 0 10.9317 15.2629 13.5727 -30.104 0 1.42109e-014 -20.6619 -9.07255 25.3767 -24.4664 1.42109e-014 0 -2.77529 -4.66248 10.8334 9.26261 -1.42109e-014 1.42109e-014 36.3747 -41.9806 9.96424 0 -35.4897 0 -175.529 32.7043 136.259 7.10543e-015 -38.2023 0 24.1374 -19.9815 17.1152 0 -6.0207 13.8939 5.96354e-016 3.18055e-015 -0 -9.26261 0 -1.42109e-014 -13.5352 -78.8993 -13.8546 -7.10543e-015 -35.4897 1.42109e-014 -177.803 62.2692 166.964 -1.42109e-014 -38.2023 0 6.33657 -10.1209 29.6405 -3.55271e-015 -6.0207 13.8939 -2.48481e-016 0 -1.59028e-015 
